<svg xmlns="http://www.w3.org/2000/svg" viewBox="0 0 290 290" shape-rendering="crispEdges">
<rect width="290" height="290" fill="#ffffff"/>
<text x="145" y="20" text-anchor="middle" font-family="Arial, sans-serif" font-size="10" fill="#dc2626" font-weight="bold">EMERGENCY INFO - SCAN IN CASE OF EMERGENCY</text>
<g transform="translate(45,30)">
<!-- QR Code for: https://tyrigley.com/em-7f8a9b2c4d6e1f3a5b7c9d.html -->
<!-- This is a simplified visual representation - you'll want to generate a real QR code -->
<rect width="200" height="200" fill="#ffffff" stroke="#000000" stroke-width="2"/>
<!-- Position patterns (corners) -->
<rect x="10" y="10" width="50" height="50" fill="#000000"/>
<rect x="17" y="17" width="36" height="36" fill="#ffffff"/>
<rect x="24" y="24" width="22" height="22" fill="#000000"/>
<rect x="140" y="10" width="50" height="50" fill="#000000"/>
<rect x="147" y="17" width="36" height="36" fill="#ffffff"/>
<rect x="154" y="24" width="22" height="22" fill="#000000"/>
<rect x="10" y="140" width="50" height="50" fill="#000000"/>
<rect x="17" y="147" width="36" height="36" fill="#ffffff"/>
<rect x="24" y="154" width="22" height="22" fill="#000000"/>
<!-- Timing patterns -->
<rect x="70" y="24" width="7" height="7" fill="#000000"/>
<rect x="84" y="24" width="7" height="7" fill="#000000"/>
<rect x="98" y="24" width="7" height="7" fill="#000000"/>
<rect x="112" y="24" width="7" height="7" fill="#000000"/>
<rect x="126" y="24" width="7" height="7" fill="#000000"/>
<rect x="24" y="70" width="7" height="7" fill="#000000"/>
<rect x="24" y="84" width="7" height="7" fill="#000000"/>
<rect x="24" y="98" width="7" height="7" fill="#000000"/>
<rect x="24" y="112" width="7" height="7" fill="#000000"/>
<rect x="24" y="126" width="7" height="7" fill="#000000"/>
<!-- Data modules (simplified pattern) -->
<rect x="70" y="70" width="7" height="7" fill="#000000"/>
<rect x="84" y="70" width="7" height="7" fill="#000000"/>
<rect x="98" y="84" width="7" height="7" fill="#000000"/>
<rect x="112" y="70" width="7" height="7" fill="#000000"/>
<rect x="126" y="84" width="7" height="7" fill="#000000"/>
<rect x="70" y="98" width="7" height="7" fill="#000000"/>
<rect x="98" y="98" width="7" height="7" fill="#000000"/>
<rect x="126" y="98" width="7" height="7" fill="#000000"/>
<rect x="84" y="112" width="7" height="7" fill="#000000"/>
<rect x="112" y="112" width="7" height="7" fill="#000000"/>
<rect x="70" y="126" width="7" height="7" fill="#000000"/>
<rect x="98" y="126" width="7" height="7" fill="#000000"/>
<rect x="140" y="70" width="7" height="7" fill="#000000"/>
<rect x="154" y="84" width="7" height="7" fill="#000000"/>
<rect x="168" y="70" width="7" height="7" fill="#000000"/>
<rect x="182" y="84" width="7" height="7" fill="#000000"/>
<rect x="140" y="98" width="7" height="7" fill="#000000"/>
<rect x="168" y="98" width="7" height="7" fill="#000000"/>
<rect x="154" y="112" width="7" height="7" fill="#000000"/>
<rect x="182" y="112" width="7" height="7" fill="#000000"/>
<rect x="140" y="126" width="7" height="7" fill="#000000"/>
<rect x="168" y="126" width="7" height="7" fill="#000000"/>
<rect x="70" y="140" width="7" height="7" fill="#000000"/>
<rect x="84" y="154" width="7" height="7" fill="#000000"/>
<rect x="98" y="140" width="7" height="7" fill="#000000"/>
<rect x="112" y="154" width="7" height="7" fill="#000000"/>
<rect x="126" y="140" width="7" height="7" fill="#000000"/>
<rect x="140" y="154" width="7" height="7" fill="#000000"/>
<rect x="154" y="140" width="7" height="7" fill="#000000"/>
<rect x="168" y="154" width="7" height="7" fill="#000000"/>
<rect x="182" y="140" width="7" height="7" fill="#000000"/>
<rect x="70" y="168" width="7" height="7" fill="#000000"/>
<rect x="98" y="168" width="7" height="7" fill="#000000"/>
<rect x="126" y="168" width="7" height="7" fill="#000000"/>
<rect x="154" y="168" width="7" height="7" fill="#000000"/>
<rect x="182" y="168" width="7" height="7" fill="#000000"/>
<rect x="84" y="182" width="7" height="7" fill="#000000"/>
<rect x="112" y="182" width="7" height="7" fill="#000000"/>
<rect x="140" y="182" width="7" height="7" fill="#000000"/>
<rect x="168" y="182" width="7" height="7" fill="#000000"/>
</g>
<text x="145" y="255" text-anchor="middle" font-family="Arial, sans-serif" font-size="8" fill="#64748b">tyrigley.com/em-7f8a9b2c4d6e1f3a5b7c9d.html</text>
<text x="145" y="270" text-anchor="middle" font-family="Arial, sans-serif" font-size="9" fill="#dc2626" font-weight="bold">TY RIGLEY • BLOOD TYPE: O+</text>
</svg>
